<mxfile host="app.diagrams.net" modified="2023-05-26T23:39:52.505Z" agent="Mozilla/5.0 (Windows NT 10.0; Win64; x64) AppleWebKit/537.36 (KHTML, like Gecko) Chrome/113.0.0.0 Safari/537.36" etag="VhRxa6cAHVeiH8G4XJ9N" version="21.3.4">
  <diagram name="Page-1" id="O3AnwbtKZOjUQCOZu6OM">
    <mxGraphModel dx="1434" dy="760" grid="1" gridSize="10" guides="1" tooltips="1" connect="1" arrows="1" fold="1" page="1" pageScale="1" pageWidth="850" pageHeight="1100" math="0" shadow="0">
      <root>
        <mxCell id="0" />
        <mxCell id="1" parent="0" />
        <mxCell id="pOi4PxDc4TYOaI7CGA8W-1" value="" style="rounded=0;whiteSpace=wrap;html=1;" vertex="1" parent="1">
          <mxGeometry x="300" y="40" width="490" height="460" as="geometry" />
        </mxCell>
        <mxCell id="pOi4PxDc4TYOaI7CGA8W-2" value="" style="rounded=0;whiteSpace=wrap;html=1;fillColor=none;" vertex="1" parent="1">
          <mxGeometry x="70" y="40" width="220" height="160" as="geometry" />
        </mxCell>
        <mxCell id="pOi4PxDc4TYOaI7CGA8W-3" value="" style="rounded=0;whiteSpace=wrap;html=1;fillColor=none;" vertex="1" parent="1">
          <mxGeometry x="70" y="200" width="220" height="160" as="geometry" />
        </mxCell>
        <mxCell id="pOi4PxDc4TYOaI7CGA8W-4" value="" style="rounded=0;whiteSpace=wrap;html=1;fillColor=none;" vertex="1" parent="1">
          <mxGeometry x="70" y="360" width="220" height="140" as="geometry" />
        </mxCell>
        <mxCell id="pOi4PxDc4TYOaI7CGA8W-5" value="" style="rounded=0;whiteSpace=wrap;html=1;" vertex="1" parent="1">
          <mxGeometry x="290" y="40" width="10" height="460" as="geometry" />
        </mxCell>
        <mxCell id="pOi4PxDc4TYOaI7CGA8W-6" value="" style="rounded=1;whiteSpace=wrap;html=1;fillColor=#f5f5f5;fontColor=#333333;strokeColor=#666666;" vertex="1" parent="1">
          <mxGeometry x="290" y="40" width="10" height="60" as="geometry" />
        </mxCell>
        <mxCell id="pOi4PxDc4TYOaI7CGA8W-7" value="" style="ellipse;whiteSpace=wrap;html=1;aspect=fixed;fillColor=#000000;strokeColor=#FF8800;strokeWidth=3;" vertex="1" parent="1">
          <mxGeometry x="170" y="150" width="20" height="20" as="geometry" />
        </mxCell>
        <mxCell id="pOi4PxDc4TYOaI7CGA8W-8" value="" style="ellipse;whiteSpace=wrap;html=1;aspect=fixed;fillColor=#000000;strokeColor=#FF8800;strokeWidth=3;" vertex="1" parent="1">
          <mxGeometry x="170" y="310" width="20" height="20" as="geometry" />
        </mxCell>
        <mxCell id="pOi4PxDc4TYOaI7CGA8W-9" value="" style="rounded=0;whiteSpace=wrap;html=1;fillColor=#dae8fc;strokeColor=none;fillStyle=hatch;movable=0;resizable=0;rotatable=0;deletable=0;editable=0;locked=1;connectable=0;" vertex="1" parent="1">
          <mxGeometry x="300" y="150" width="490" height="240" as="geometry" />
        </mxCell>
        <mxCell id="pOi4PxDc4TYOaI7CGA8W-10" value="" style="endArrow=none;html=1;rounded=0;entryX=0;entryY=0.5;entryDx=0;entryDy=0;exitX=0;exitY=1;exitDx=0;exitDy=0;" edge="1" parent="1" source="pOi4PxDc4TYOaI7CGA8W-2" target="pOi4PxDc4TYOaI7CGA8W-7">
          <mxGeometry width="50" height="50" relative="1" as="geometry">
            <mxPoint x="400" y="320" as="sourcePoint" />
            <mxPoint x="450" y="270" as="targetPoint" />
          </mxGeometry>
        </mxCell>
        <mxCell id="pOi4PxDc4TYOaI7CGA8W-11" value="" style="endArrow=none;html=1;rounded=0;entryX=1;entryY=0.5;entryDx=0;entryDy=0;exitX=1;exitY=0;exitDx=0;exitDy=0;" edge="1" parent="1" source="pOi4PxDc4TYOaI7CGA8W-3" target="pOi4PxDc4TYOaI7CGA8W-7">
          <mxGeometry width="50" height="50" relative="1" as="geometry">
            <mxPoint x="80" y="210" as="sourcePoint" />
            <mxPoint x="180" y="170" as="targetPoint" />
          </mxGeometry>
        </mxCell>
        <mxCell id="pOi4PxDc4TYOaI7CGA8W-12" value="" style="endArrow=none;html=1;rounded=0;exitX=0;exitY=0.5;exitDx=0;exitDy=0;entryX=0;entryY=0.5;entryDx=0;entryDy=0;" edge="1" parent="1" source="pOi4PxDc4TYOaI7CGA8W-8" target="pOi4PxDc4TYOaI7CGA8W-3">
          <mxGeometry width="50" height="50" relative="1" as="geometry">
            <mxPoint x="400" y="320" as="sourcePoint" />
            <mxPoint x="450" y="270" as="targetPoint" />
          </mxGeometry>
        </mxCell>
        <mxCell id="pOi4PxDc4TYOaI7CGA8W-13" value="" style="endArrow=none;html=1;rounded=0;exitX=1;exitY=0.5;exitDx=0;exitDy=0;" edge="1" parent="1" source="pOi4PxDc4TYOaI7CGA8W-8">
          <mxGeometry width="50" height="50" relative="1" as="geometry">
            <mxPoint x="180" y="330" as="sourcePoint" />
            <mxPoint x="290" y="290" as="targetPoint" />
          </mxGeometry>
        </mxCell>
        <mxCell id="pOi4PxDc4TYOaI7CGA8W-14" value="" style="rounded=0;whiteSpace=wrap;html=1;fillColor=none;strokeColor=#FF0000;strokeWidth=3;fillStyle=solid;" vertex="1" parent="1">
          <mxGeometry x="110" y="70" width="140" height="70" as="geometry" />
        </mxCell>
        <mxCell id="pOi4PxDc4TYOaI7CGA8W-15" value="" style="rounded=0;whiteSpace=wrap;html=1;fillColor=none;strokeColor=#FF0000;strokeWidth=3;" vertex="1" parent="1">
          <mxGeometry x="110" y="230" width="140" height="70" as="geometry" />
        </mxCell>
        <mxCell id="pOi4PxDc4TYOaI7CGA8W-16" value="&lt;font style=&quot;font-size: 20px;&quot;&gt;1&lt;/font&gt;" style="text;strokeColor=none;align=center;fillColor=none;html=1;verticalAlign=middle;whiteSpace=wrap;rounded=0;" vertex="1" parent="1">
          <mxGeometry x="80" y="40" width="20" height="30" as="geometry" />
        </mxCell>
        <mxCell id="pOi4PxDc4TYOaI7CGA8W-17" value="&lt;font style=&quot;font-size: 20px;&quot;&gt;2&lt;/font&gt;" style="text;strokeColor=none;align=center;fillColor=none;html=1;verticalAlign=middle;whiteSpace=wrap;rounded=0;" vertex="1" parent="1">
          <mxGeometry x="80" y="200" width="20" height="30" as="geometry" />
        </mxCell>
        <mxCell id="pOi4PxDc4TYOaI7CGA8W-18" value="&lt;font style=&quot;font-size: 17px;&quot;&gt;&lt;b&gt;0&lt;/b&gt;&lt;/font&gt;" style="ellipse;whiteSpace=wrap;html=1;aspect=fixed;" vertex="1" parent="1">
          <mxGeometry x="550" y="210" width="30" height="30" as="geometry" />
        </mxCell>
        <mxCell id="pOi4PxDc4TYOaI7CGA8W-20" value="&lt;font style=&quot;font-size: 17px;&quot;&gt;&lt;b&gt;1&lt;/b&gt;&lt;/font&gt;" style="ellipse;whiteSpace=wrap;html=1;aspect=fixed;" vertex="1" parent="1">
          <mxGeometry x="620" y="210" width="30" height="30" as="geometry" />
        </mxCell>
        <mxCell id="pOi4PxDc4TYOaI7CGA8W-21" value="&lt;font style=&quot;font-size: 17px;&quot;&gt;&lt;b&gt;2&lt;/b&gt;&lt;/font&gt;" style="ellipse;whiteSpace=wrap;html=1;aspect=fixed;" vertex="1" parent="1">
          <mxGeometry x="690" y="210" width="30" height="30" as="geometry" />
        </mxCell>
        <mxCell id="pOi4PxDc4TYOaI7CGA8W-22" value="&lt;font style=&quot;font-size: 17px;&quot;&gt;&lt;b&gt;3&lt;/b&gt;&lt;/font&gt;" style="ellipse;whiteSpace=wrap;html=1;aspect=fixed;" vertex="1" parent="1">
          <mxGeometry x="750" y="210" width="30" height="30" as="geometry" />
        </mxCell>
        <mxCell id="pOi4PxDc4TYOaI7CGA8W-23" value="&lt;font style=&quot;font-size: 17px;&quot;&gt;&lt;b&gt;0&lt;/b&gt;&lt;/font&gt;" style="ellipse;whiteSpace=wrap;html=1;aspect=fixed;fillColor=#080808;strokeColor=#FFFFFF;fontColor=#FFFFFF;" vertex="1" parent="1">
          <mxGeometry x="380" y="310" width="30" height="30" as="geometry" />
        </mxCell>
        <mxCell id="pOi4PxDc4TYOaI7CGA8W-24" value="&lt;font style=&quot;font-size: 17px;&quot;&gt;&lt;b&gt;1&lt;/b&gt;&lt;/font&gt;" style="ellipse;whiteSpace=wrap;html=1;aspect=fixed;fillColor=#080808;strokeColor=#FFFFFF;fontColor=#FFFFFF;" vertex="1" parent="1">
          <mxGeometry x="460" y="255" width="30" height="30" as="geometry" />
        </mxCell>
        <mxCell id="pOi4PxDc4TYOaI7CGA8W-25" value="&lt;font style=&quot;font-size: 17px;&quot;&gt;&lt;b&gt;2&lt;/b&gt;&lt;/font&gt;" style="ellipse;whiteSpace=wrap;html=1;aspect=fixed;fillColor=#080808;strokeColor=#FFFFFF;fontColor=#FFFFFF;" vertex="1" parent="1">
          <mxGeometry x="570" y="260" width="30" height="30" as="geometry" />
        </mxCell>
        <mxCell id="pOi4PxDc4TYOaI7CGA8W-26" value="&lt;font style=&quot;font-size: 17px;&quot;&gt;&lt;b&gt;3&lt;/b&gt;&lt;/font&gt;" style="ellipse;whiteSpace=wrap;html=1;aspect=fixed;fillColor=#080808;strokeColor=#FFFFFF;fontColor=#FFFFFF;" vertex="1" parent="1">
          <mxGeometry x="650" y="340" width="30" height="30" as="geometry" />
        </mxCell>
      </root>
    </mxGraphModel>
  </diagram>
</mxfile>
